<svg width="481" height="144" viewBox="0 0 481 144" fill="none" xmlns="http://www.w3.org/2000/svg">
<mask id="mask0_101_2" style="mask-type:alpha" maskUnits="userSpaceOnUse" x="0" y="0" width="640" height="144">
<rect width="640" height="144" fill="#C4C4C4"/>
</mask>
<g mask="url(#mask0_101_2)">
<path d="M159.298 79.3753C181.216 79.3753 198.985 61.6067 198.985 39.6878C198.985 17.7689 181.216 0 159.298 0C137.379 0 119.61 17.7689 119.61 39.6878C119.61 61.6067 137.379 79.3753 159.298 79.3753Z" fill="#E8F5FF"/>
<path d="M176.811 14.75C171.787 11.1537 165.657 9.00673 159.006 9.00673C142.109 9.00673 128.394 22.7177 128.394 39.6283C128.394 46.6661 130.787 53.1203 134.78 58.2938C136.918 35.7128 154.485 17.6763 176.811 14.75Z" fill="white"/>
<path d="M179 189C204.957 189 226 167.958 226 142C226 116.043 204.957 95 179 95C153.042 95 132 116.043 132 142C132 167.958 153.042 189 179 189Z" fill="#E8F5FF"/>
<path d="M199.74 112.468C193.791 108.209 186.531 105.666 178.655 105.666C158.645 105.666 142.402 121.903 142.402 141.93C142.402 150.264 145.236 157.908 149.965 164.034C152.497 137.293 173.3 115.933 199.74 112.468Z" fill="white"/>
<path d="M91.5502 141.508C108.706 141.508 122.614 127.6 122.614 110.444C122.614 93.288 108.706 79.3806 91.5502 79.3806C74.3943 79.3806 60.4866 93.288 60.4866 110.444C60.4866 127.6 74.3943 141.508 91.5502 141.508Z" fill="#E8F5FF"/>
<path d="M105.74 91.0885C101.752 88.226 96.8699 86.5212 91.5779 86.5212C78.1405 86.5212 67.2285 97.4287 67.2285 110.88C67.2285 116.482 69.1338 121.614 72.3063 125.73C74.0065 107.762 87.9861 93.4222 105.74 91.0885Z" fill="white"/>
<path d="M320.112 127.225C336.743 127.225 350.225 113.743 350.225 97.1124C350.225 80.4817 336.743 67 320.112 67C303.482 67 290 80.4817 290 97.1124C290 113.743 303.482 127.225 320.112 127.225Z" fill="#E8F5FF"/>
<path d="M332.983 77.5021C329.329 74.8779 324.855 73.3179 320.005 73.3179C307.692 73.3179 297.697 83.3081 297.697 95.6377C297.697 100.761 299.444 105.474 302.347 109.243C303.907 92.7746 316.714 79.6367 332.983 77.5021Z" fill="white"/>
<path d="M254 102C262.284 102 269 95.2842 269 86.9999C269 78.7157 262.284 72 254 72C245.716 72 239 78.7157 239 86.9999C239 95.2842 245.716 102 254 102Z" fill="#E8F5FF"/>
<path d="M260.411 77.2315C258.591 75.9244 256.362 75.1473 253.946 75.1473C247.813 75.1473 242.834 80.1237 242.834 86.2655C242.834 88.8175 243.704 91.1653 245.151 93.0424C245.927 84.8392 252.307 78.2949 260.411 77.2315Z" fill="white"/>
<path d="M19.0393 150.962C29.5544 150.962 38.0786 142.438 38.0786 131.923C38.0786 121.407 29.5544 112.883 19.0393 112.883C8.5242 112.883 0 121.407 0 131.923C0 142.438 8.5242 150.962 19.0393 150.962Z" fill="#E8F5FF"/>
<path d="M27.6587 121.412C25.3568 119.767 22.549 118.782 19.4996 118.782C11.7599 118.782 5.4788 125.063 5.4788 132.807C5.4788 136.03 6.57274 138.988 8.40511 141.358C9.38511 131.016 17.4302 122.757 27.6587 121.412Z" fill="white"/>
<path d="M461.039 130.079C471.554 130.079 480.079 121.554 480.079 111.039C480.079 100.524 471.554 92 461.039 92C450.524 92 442 100.524 442 111.039C442 121.554 450.524 130.079 461.039 130.079Z" fill="#E8F5FF"/>
<path d="M469.659 100.529C467.357 98.8833 464.549 97.8986 461.5 97.8986C453.76 97.8986 447.479 104.18 447.479 111.924C447.479 115.147 448.573 118.105 450.405 120.475C451.385 110.133 459.43 101.873 469.659 100.529Z" fill="white"/>
</g>
</svg>
