<svg width="16" height="22" viewBox="0 0 16 22" fill="none" xmlns="http://www.w3.org/2000/svg">
<path d="M8.00004 0.902344C3.87976 0.902344 0.536621 3.93679 0.536621 7.67586C0.536621 13.6968 8.00004 21.9755 8.00004 21.9755C8.00004 21.9755 15.4635 13.6968 15.4635 7.67586C15.4635 3.93679 12.1203 0.902344 8.00004 0.902344ZM8.00004 11.4389C7.40959 11.4389 6.8324 11.2624 6.34146 10.9316C5.85051 10.6008 5.46787 10.1306 5.24192 9.58053C5.01596 9.03044 4.95684 8.42514 5.07203 7.84117C5.18722 7.2572 5.47155 6.72078 5.88906 6.29976C6.30657 5.87875 6.83852 5.59203 7.41762 5.47587C7.99672 5.35971 8.59698 5.41933 9.14249 5.64718C9.68799 5.87503 10.1542 6.26089 10.4823 6.75596C10.8103 7.25102 10.9854 7.83307 10.9854 8.42848C10.9845 9.22663 10.6697 9.99185 10.1101 10.5562C9.55038 11.1206 8.79154 11.4381 8.00004 11.4389Z" fill="white"/>
</svg>
