<svg width="122" height="52" viewBox="0 0 122 52" fill="none" xmlns="http://www.w3.org/2000/svg">
<path d="M12 28C18.6274 28 24 22.6275 24 16C24 9.37263 18.6274 4 12 4C5.37254 4 0 9.37263 0 16C0 22.6275 5.37254 28 12 28Z" fill="#29A9E0"/>
<path d="M17.2953 8.46015C15.7765 7.37275 13.9228 6.7236 11.912 6.7236C6.80302 6.7236 2.65601 10.8693 2.65601 15.9824C2.65601 18.1103 3.37956 20.0618 4.58687 21.6261C5.23324 14.7985 10.5448 9.34495 17.2953 8.46015Z" fill="#63CEF5"/>
<path d="M56.9999 52C67.4933 52 76 43.4935 76 33.0001C76 22.5067 67.4933 14 56.9999 14C46.5065 14 38 22.5067 38 33.0001C38 43.4935 46.5065 52 56.9999 52Z" fill="#29A9E0"/>
<path d="M65.3842 21.0619C62.9794 19.3402 60.0444 18.3124 56.8607 18.3124C48.7714 18.3124 42.2053 24.8764 42.2053 32.9721C42.2053 36.3414 43.351 39.4313 45.2625 41.908C46.2859 31.0976 54.696 22.4629 65.3842 21.0619Z" fill="#63CEF5"/>
<path d="M106 32C114.837 32 122 24.8366 122 16.0001C122 7.1635 114.837 0 106 0C97.1634 0 90 7.1635 90 16.0001C90 24.8366 97.1634 32 106 32Z" fill="#29A9E0"/>
<path d="M113.06 5.94693C111.035 4.49706 108.564 3.63153 105.883 3.63153C99.0706 3.63153 93.5413 9.15907 93.5413 15.9766C93.5413 18.8138 94.506 21.4158 96.1157 23.5015C96.9776 14.398 104.06 7.12667 113.06 5.94693Z" fill="#63CEF5"/>
</svg>
