<svg width="134" height="141" viewBox="0 0 134 141" fill="none" xmlns="http://www.w3.org/2000/svg">
<path d="M66.7529 138.981C103.62 138.981 133.506 109.094 133.506 72.2279C133.506 35.3613 103.62 5.47498 66.7529 5.47498C29.8863 5.47498 0 35.3613 0 72.2279C0 109.094 29.8863 138.981 66.7529 138.981Z" fill="#E8F5FF"/>
<path d="M76.0509 66.3799C76.3972 65.9694 77.3066 65.9081 77.7907 65.9081C78.5093 65.9081 79.0472 65.9081 79.391 68.406C79.4232 68.6416 79.4198 68.8363 79.4476 68.9789C79.6118 69.8149 80.1345 70.4958 80.6949 70.9112V91.492C80.6949 93.1167 82.0119 94.4338 83.6366 94.4338C85.2613 94.4338 86.5783 93.1167 86.5783 91.492V61.4134C86.8585 59.7635 88.0834 59.7635 88.6756 59.7635C90.4902 59.7635 91.1472 60.9898 91.1528 61.0021C91.2355 61.1831 91.3411 61.3506 91.3411 61.5059V88.9706C91.3411 90.5952 92.6581 91.9123 94.2828 91.9123C95.9075 91.9123 97.2245 90.5952 97.2245 88.9706V57.2877C97.5047 56.5963 98.2062 55.2675 100.26 55.2675C101.791 55.2675 102.267 56.22 102.548 56.9148V91.4923C102.548 93.117 103.865 94.434 105.489 94.434C107.114 94.434 108.431 93.117 108.431 91.4923V62.0981C108.991 61.9538 109.373 61.862 109.997 61.862C111.118 61.862 111.864 62.246 112.386 63.1874C112.939 64.1853 113.047 65.4337 113.047 66.014C113.048 70.5633 113.754 93.1131 113.754 93.5002V98.9537C112.353 99.0478 110.641 99.168 108.368 99.2966C102.242 99.6434 98.9674 102.446 98.6027 102.764L102.456 107.198L102.408 107.224C102.497 107.149 104.628 105.404 108.74 105.171C114.015 104.872 116.915 104.626 117.037 104.615C118.561 104.487 119.637 103.213 119.637 101.684V93.4409C119.637 93.4008 119.729 93.361 119.727 93.321C119.724 93.2579 119.748 91.2175 119.636 88.2267C119.944 88.1444 120.322 88.0895 120.815 88.0895C121.461 88.0895 123.422 88.0895 123.422 92.2418C123.422 95.4799 123.404 97.2721 123.397 98.4471C123.389 100.061 123.371 100.548 123.407 101.982C123.601 109.708 121.782 111.099 120.205 112.326C118.769 113.442 115.104 116.35 114.95 116.473C114.253 117.031 113.754 117.876 113.754 118.769V132.671L82.9989 137.376L83.0802 127.141C83.0861 126.57 82.8849 126.008 82.5767 125.527C80.6792 122.555 75.6514 113.525 75.6514 107.529V69.0114C75.6514 68.8066 75.7354 68.6635 75.6937 68.4657C75.6211 68.0082 75.6248 66.8842 76.0509 66.3799Z" fill="#29ABE2"/>
<path d="M51.8082 68.2189C51.7665 68.4167 51.8382 68.5599 51.8382 68.7647V107.282C51.8382 113.278 46.8297 122.308 44.9322 125.28C44.6237 125.762 44.4223 126.323 44.4279 126.895L44.4932 137.129L13.736 132.425V118.523C13.736 117.63 13.2493 116.785 12.552 116.227C12.3982 116.104 8.72607 113.196 7.29051 112.08C5.71291 110.853 3.90445 109.462 4.09833 101.736C4.13447 100.302 4.12186 99.8147 4.11346 98.2009C4.10757 97.0259 4.093 95.2334 4.09328 91.9956C4.09328 87.8433 6.05835 87.8433 6.70497 87.8433C7.19749 87.8433 7.58272 87.8982 7.8909 87.9806C7.77939 90.9713 7.77716 93.0117 7.77435 93.0748C7.77267 93.1148 7.85224 93.1546 7.85224 93.1947V101.438C7.85224 102.967 8.94207 104.24 10.4653 104.369C10.5878 104.38 13.481 104.626 18.7565 104.925C22.8676 105.157 25.01 106.903 25.1 106.978L25.0596 106.952L28.9225 102.518C28.5574 102.2 25.2582 99.3972 19.1325 99.0504C16.8595 98.9218 15.1368 98.8016 13.736 98.7075V93.2541C13.736 92.8666 14.4616 70.3171 14.4621 65.7678C14.4621 65.1876 14.5694 63.9392 15.1222 62.9412C15.6441 61.9999 16.3748 61.6158 17.4952 61.6158C18.1197 61.6158 18.4987 61.7077 19.0591 61.852V91.2462C19.0591 92.8708 20.3761 94.1879 22.0008 94.1879C23.6254 94.1879 24.9425 92.8708 24.9425 91.2462V56.6684C25.2227 55.9738 25.6992 55.021 27.2298 55.021C29.2839 55.021 29.9854 56.3498 30.2656 57.0413V88.7244C30.2656 90.3491 31.5827 91.6661 33.2073 91.6661C34.832 91.6661 36.149 90.3491 36.149 88.7244V61.2597C36.149 61.1045 36.2802 60.9369 36.3631 60.7559C36.3687 60.7436 36.9926 59.5173 38.807 59.5173C39.3992 59.5173 40.6317 59.5173 40.9118 61.1672V91.2459C40.9118 92.8705 42.2289 94.1876 43.8535 94.1876C45.4782 94.1876 46.7953 92.8705 46.7953 91.2459V70.665C47.3556 70.2496 47.8907 69.5688 48.0549 68.7328C48.0829 68.5902 48.0717 68.3954 48.1039 68.1598C48.4477 65.6619 48.9954 65.6619 49.7143 65.6619C50.1984 65.6619 51.093 65.7232 51.4395 66.1337C51.8651 66.6377 51.8811 67.762 51.8082 68.2189Z" fill="#29ABE2"/>
<path d="M17.9382 35.3395V40.1023" stroke="#021A63" stroke-width="3" stroke-miterlimit="10" stroke-linecap="round" stroke-linejoin="round"/>
<path d="M17.9382 21.3314V26.0942" stroke="#021A63" stroke-width="3" stroke-miterlimit="10" stroke-linecap="round" stroke-linejoin="round"/>
<path d="M13.4557 30.8569H8.69287" stroke="#021A63" stroke-width="3" stroke-miterlimit="10" stroke-linecap="round" stroke-linejoin="round"/>
<path d="M26.9034 30.8569H22.7009" stroke="#021A63" stroke-width="3" stroke-miterlimit="10" stroke-linecap="round" stroke-linejoin="round"/>
<path d="M46.5149 15.728V20.4908" stroke="#021A63" stroke-width="3" stroke-miterlimit="10" stroke-linecap="round" stroke-linejoin="round"/>
<path d="M46.5149 2V6.76278" stroke="#021A63" stroke-width="3" stroke-miterlimit="10" stroke-linecap="round" stroke-linejoin="round"/>
<path d="M41.7521 11.2455H37.2695" stroke="#021A63" stroke-width="3" stroke-miterlimit="10" stroke-linecap="round" stroke-linejoin="round"/>
<path d="M55.7603 11.2455H50.9976" stroke="#021A63" stroke-width="3" stroke-miterlimit="10" stroke-linecap="round" stroke-linejoin="round"/>
<path d="M65.2859 46.8262V51.3088" stroke="#021A63" stroke-width="3" stroke-miterlimit="10" stroke-linecap="round" stroke-linejoin="round"/>
<path d="M65.2859 33.0983V37.861" stroke="#021A63" stroke-width="3" stroke-miterlimit="10" stroke-linecap="round" stroke-linejoin="round"/>
<path d="M60.8033 42.0634H56.0405" stroke="#021A63" stroke-width="3" stroke-miterlimit="10" stroke-linecap="round" stroke-linejoin="round"/>
<path d="M74.8114 42.0634H70.0486" stroke="#021A63" stroke-width="3" stroke-miterlimit="10" stroke-linecap="round" stroke-linejoin="round"/>
<path d="M89.9403 22.1718V26.9345" stroke="#021A63" stroke-width="3" stroke-miterlimit="10" stroke-linecap="round" stroke-linejoin="round"/>
<path d="M89.9403 8.44373V13.2065" stroke="#021A63" stroke-width="3" stroke-miterlimit="10" stroke-linecap="round" stroke-linejoin="round"/>
<path d="M85.4577 17.6892H80.9751" stroke="#021A63" stroke-width="3" stroke-miterlimit="10" stroke-linecap="round" stroke-linejoin="round"/>
<path d="M99.4659 17.6892H94.7031" stroke="#021A63" stroke-width="3" stroke-miterlimit="10" stroke-linecap="round" stroke-linejoin="round"/>
<path d="M114.595 41.223V45.9858" stroke="#021A63" stroke-width="3" stroke-miterlimit="10" stroke-linecap="round" stroke-linejoin="round"/>
<path d="M114.595 27.4949V31.9775" stroke="#021A63" stroke-width="3" stroke-miterlimit="10" stroke-linecap="round" stroke-linejoin="round"/>
<path d="M110.112 36.7402H105.349" stroke="#021A63" stroke-width="3" stroke-miterlimit="10" stroke-linecap="round" stroke-linejoin="round"/>
<path d="M124.12 36.7402H119.358" stroke="#021A63" stroke-width="3" stroke-miterlimit="10" stroke-linecap="round" stroke-linejoin="round"/>
<path d="M93.8628 120.509V124.151" stroke="#021A63" stroke-width="3" stroke-miterlimit="10" stroke-linecap="round" stroke-linejoin="round"/>
<path d="M93.8628 108.742V112.945" stroke="#021A63" stroke-width="3" stroke-miterlimit="10" stroke-linecap="round" stroke-linejoin="round"/>
<path d="M90.2206 116.867H86.2983" stroke="#021A63" stroke-width="3" stroke-miterlimit="10" stroke-linecap="round" stroke-linejoin="round"/>
<path d="M101.707 116.867H97.785" stroke="#021A63" stroke-width="3" stroke-miterlimit="10" stroke-linecap="round" stroke-linejoin="round"/>
<path d="M35.5886 117.708V122.47" stroke="#021A63" stroke-width="3" stroke-miterlimit="10" stroke-linecap="round" stroke-linejoin="round"/>
<path d="M35.5886 104.26V108.742" stroke="#021A63" stroke-width="3" stroke-miterlimit="10" stroke-linecap="round" stroke-linejoin="round"/>
<path d="M30.8259 113.505H26.3433" stroke="#021A63" stroke-width="3" stroke-miterlimit="10" stroke-linecap="round" stroke-linejoin="round"/>
<path d="M44.8341 113.505H40.0713" stroke="#021A63" stroke-width="3" stroke-miterlimit="10" stroke-linecap="round" stroke-linejoin="round"/>
<path d="M46.515 89.6912V59.5669C46.515 59.5669 45.7339 55.021 40.7383 55.021C37.9283 55.021 36.6269 56.7087 36.0461 57.9748" stroke="#021A63" stroke-width="3" stroke-miterlimit="10" stroke-linecap="round" stroke-linejoin="round"/>
<path d="M24.6624 89.6913V54.7708C24.6624 54.7708 25.395 50.5247 29.8913 50.5247C34.8866 50.5247 35.8689 55.0706 35.8689 55.0706V87.1698" stroke="#021A63" stroke-width="3" stroke-miterlimit="10" stroke-linecap="round" stroke-linejoin="round"/>
<path d="M28.2661 103.18C28.2661 103.18 26.231 100.732 20.9356 100.432C15.6402 100.132 13.4558 99.883 13.4558 99.883V91.6398C13.4558 91.6398 13.4917 71.8566 13.4925 64.2129C13.4925 62.3307 13.9744 57.1191 19.0619 57.1191C24.2511 57.1191 24.6859 61.3653 24.6859 61.3653" stroke="#021A63" stroke-width="3" stroke-miterlimit="10" stroke-linecap="round" stroke-linejoin="round"/>
<path d="M13.4557 133.397V116.969C13.4557 116.969 8.93272 113.963 7.49688 112.847C4.78938 110.741 2.21636 108.201 2.41976 100.107C2.48055 97.6916 2.42844 98.0841 2.429 90.4407C2.429 88.5589 2.89687 83.3467 7.98493 83.3467C10.5795 83.3467 11.9747 84.4074 12.7214 85.4678" stroke="#021A63" stroke-width="3" stroke-miterlimit="10" stroke-linecap="round" stroke-linejoin="round"/>
<path d="M84.8975 89.6912V59.5669C84.8975 59.5669 85.7298 55.021 90.7252 55.021C93.1841 55.021 94.4802 56.3134 95.15 57.4845" stroke="#021A63" stroke-width="3" stroke-miterlimit="10" stroke-linecap="round" stroke-linejoin="round"/>
<path d="M106.75 89.6913V54.7708C106.75 54.7708 106.018 50.5247 101.522 50.5247C96.5259 50.5247 95.5437 55.0706 95.5437 55.0706V87.1698" stroke="#021A63" stroke-width="3" stroke-miterlimit="10" stroke-linecap="round" stroke-linejoin="round"/>
<path d="M103.248 103.18C103.248 103.18 105.372 100.732 110.667 100.432C115.963 100.132 118.237 99.8827 118.237 99.8827V91.6394C118.237 91.6394 118.111 71.8562 118.111 64.2125C118.111 62.3304 117.585 57.1188 112.497 57.1188C107.307 57.1188 106.851 61.3649 106.851 61.3649" stroke="#021A63" stroke-width="3" stroke-miterlimit="10" stroke-linecap="round" stroke-linejoin="round"/>
<path d="M118.391 133.455L117.991 116.969C117.991 116.969 122.547 113.963 123.983 112.847C126.691 110.741 129.281 108.201 129.077 100.107C129.017 97.6916 129.077 98.0841 129.077 90.4407C129.077 88.5589 128.613 83.3467 123.525 83.3467C120.691 83.3467 119.279 84.6211 118.58 85.7777" stroke="#021A63" stroke-width="3" stroke-miterlimit="10" stroke-linecap="round" stroke-linejoin="round"/>
<path d="M50.1572 139V125.811L50.1521 125.312C50.1521 125.312 57.4414 113.922 57.4414 105.728C57.4414 97.5353 57.4414 67.2107 57.4414 67.2107C57.4414 67.2107 57.8412 61.1659 51.7468 61.1659C47.4502 61.1659 46.9465 65.6365 46.7551 66.6114" stroke="#021A63" stroke-width="3" stroke-miterlimit="10" stroke-linecap="round" stroke-linejoin="round"/>
<path d="M81.5356 139V125.811L81.5375 125.312C81.5375 125.312 74.2513 113.922 74.2513 105.728C74.2513 97.5353 74.2513 67.2107 74.2513 67.2107C74.2513 67.2107 73.7621 61.1659 79.8574 61.1659C84.1534 61.1659 84.6997 65.6365 84.8914 66.6114" stroke="#021A63" stroke-width="3" stroke-miterlimit="10" stroke-linecap="round" stroke-linejoin="round"/>
</svg>
