<svg width="183" height="64" viewBox="0 0 183 64" fill="none" xmlns="http://www.w3.org/2000/svg">
<path d="M3.18324 24.2366C4.94129 24.2366 6.36647 22.8114 6.36647 21.0534C6.36647 19.2953 4.94129 17.8701 3.18324 17.8701C1.42518 17.8701 0 19.2953 0 21.0534C0 22.8114 1.42518 24.2366 3.18324 24.2366Z" fill="#29A9E0"/>
<path d="M57.4651 13.0898C59.9938 13.0898 62.0437 11.0399 62.0437 8.51123C62.0437 5.98253 59.9938 3.93262 57.4651 3.93262C54.9364 3.93262 52.8865 5.98253 52.8865 8.51123C52.8865 11.0399 54.9364 13.0898 57.4651 13.0898Z" fill="#29A9E0"/>
<path d="M15.3067 23.6592C18.175 23.6592 20.5003 21.3339 20.5003 18.4655C20.5003 15.5972 18.175 13.272 15.3067 13.272C12.4383 13.272 10.113 15.5972 10.113 18.4655C10.113 21.3339 12.4383 23.6592 15.3067 23.6592Z" fill="#29A9E0"/>
<path d="M26.6333 13.271C30.2979 13.271 33.2688 10.3002 33.2688 6.63551C33.2688 2.97083 30.2979 0 26.6333 0C22.9686 0 19.9978 2.97083 19.9978 6.63551C19.9978 10.3002 22.9686 13.271 26.6333 13.271Z" fill="#29A9E0"/>
<path d="M73.0924 30.9415L70.4297 27.426C70.4297 27.426 82.2123 20.7493 96.3482 22.9099C109.308 25.2662 113.038 30.9415 113.038 30.9415H73.0924V30.9415Z" fill="#63CEF5"/>
<path d="M10.113 33.9281C12.3395 33.9281 14.1444 32.1232 14.1444 29.8967C14.1444 27.6702 12.3395 25.8652 10.113 25.8652C7.88646 25.8652 6.08154 27.6702 6.08154 29.8967C6.08154 32.1232 7.88646 33.9281 10.113 33.9281Z" fill="#29A9E0"/>
<path d="M37.5914 42.1807L33.4328 63.5709H27.9167L30.0872 52.2959L23.0645 61.463H20.4438L16.6158 52.2959L14.3859 63.5709H8.89966L13.1193 42.1807H17.9715L22.9144 54.5569L32.4984 42.1807H37.5914Z" fill="white"/>
<path d="M41.9765 62.8081C40.3998 62.0147 39.1842 60.9028 38.3299 59.477C37.4756 58.0511 37.0489 56.421 37.0489 54.5889C37.0489 52.1434 37.6059 49.9433 38.7209 47.9877C39.8366 46.0322 41.3935 44.5043 43.3932 43.403C45.3922 42.3041 47.667 41.7539 50.2192 41.7539C52.3493 41.7539 54.2027 42.1509 55.7802 42.9443C57.3577 43.7391 58.5724 44.8495 59.4267 46.2761C60.281 47.702 60.7086 49.3321 60.7086 51.1649C60.7086 53.6104 60.1507 55.8106 59.0358 57.7661C57.9209 59.7216 56.3632 61.2488 54.3642 62.3493C52.3645 63.449 50.0889 63.9999 47.5375 63.9999C45.4074 63.9999 43.5533 63.6029 41.9765 62.8081ZM51.546 57.9795C52.5504 57.3081 53.3247 56.4065 53.8666 55.2748C54.41 54.1454 54.6805 52.8979 54.6805 51.533C54.6805 50.0866 54.2431 48.9297 53.3689 48.0632C52.4956 47.1982 51.2747 46.7654 49.7071 46.7654C48.3811 46.7654 47.2151 47.1015 46.2107 47.7729C45.2062 48.4458 44.4327 49.3473 43.8901 50.4775C43.3475 51.6084 43.0762 52.856 43.0762 54.2209C43.0762 55.6673 43.5137 56.8242 44.3878 57.6891C45.2619 58.5556 46.4827 58.9885 48.0496 58.9885C49.3764 58.9885 50.5408 58.6516 51.546 57.9795Z" fill="white"/>
<path d="M64.3551 42.1807H70.3223L66.1026 63.5709H60.1355L64.3551 42.1807Z" fill="white"/>
<path d="M82.9212 52.0208L90.0032 63.571H83.3426L78.4904 55.8709L75.7484 58.3759L74.7226 63.5702H68.8462L73.0643 42.18H78.9423L77.2245 50.9204L86.7476 42.18H93.7702L82.9212 52.0208Z" fill="white"/>
<path d="M104.2 59.4152H95.2174L92.7765 63.5709H86.477L100.01 42.1807H105.888L110.982 63.5709H105.044L104.2 59.4152ZM103.295 54.9548L101.878 48.0175L97.8397 54.9548H103.295Z" fill="white"/>
<path d="M112.246 50.4922H121.018L120.143 54.9542H111.373L112.246 50.4922Z" fill="white"/>
<path d="M125.025 42.1806H130.993L127.737 58.7736H137.805L136.84 63.5709H120.807L125.025 42.1806Z" fill="white"/>
<path d="M143.019 63.068C141.693 62.4462 140.677 61.556 139.975 60.3931C139.271 59.2324 138.919 57.8676 138.919 56.2984C138.919 55.6468 138.999 54.8931 139.16 54.0373L141.512 42.18H147.479L145.158 53.9451C145.037 54.557 144.977 55.1179 144.977 55.6255C144.977 57.8668 146.142 58.9878 148.474 58.9878C149.739 58.9878 150.739 58.5961 151.472 57.8104C152.205 57.0277 152.753 55.7383 153.115 53.9451L155.435 42.18H161.313L158.932 54.3124C157.645 60.7711 153.919 63.9993 147.75 63.9993C145.921 64 144.345 63.6891 143.019 63.068Z" fill="white"/>
<path d="M182.055 43.6126H175.343L171.228 48.3238L168.154 42.1806H161.795L167.189 52.5092L157.154 63.5717H164.297L169.812 57.1549L173.006 63.5717H179.456L173.73 52.8453L182.055 43.6126Z" fill="white"/>
<path d="M71.7009 34.4998H65.6889L64.6867 39.7101H70.6996L71.7009 34.4998Z" fill="white"/>
<path d="M176.649 36.3898C176.319 36.3898 176.002 36.4347 175.69 36.4873C174.881 35.5606 173.708 34.9624 172.382 34.9624C172.034 34.9624 171.697 35.0134 171.37 35.0904C171.372 35.0234 171.391 34.9601 171.391 34.8908C171.391 31.6359 168.753 28.9991 165.5 28.9991C163.936 28.9991 162.522 29.6202 161.466 30.617C160.298 28.964 158.378 27.8834 156.2 27.8834C154.798 27.8834 153.503 28.3361 152.445 29.0966C151.717 25.572 148.595 22.9207 144.855 22.9207C142.425 22.9207 140.254 24.0432 138.835 25.7937C137.705 24.8183 136.236 24.2231 134.624 24.2231C132.744 24.2231 131.056 25.034 129.876 26.3188C128.36 23.65 125.494 21.8446 122.205 21.8446C121.496 21.8446 120.814 21.9368 120.154 22.0946C118.7 19.2146 115.725 17.2363 112.279 17.2363C111.37 17.2363 110.493 17.375 109.665 17.6303C109.537 12.868 105.645 9.04459 100.851 9.04459C98.992 9.04459 97.2682 9.62304 95.8454 10.6054C94.5521 8.35493 92.1302 6.83838 89.3501 6.83838C86.8558 6.83838 84.6526 8.06077 83.2892 9.93398C81.8946 9.03777 80.2378 8.51116 78.4561 8.51116C75.9168 8.51116 73.629 9.57196 71.9989 11.2691C71.1492 10.9894 70.2423 10.8332 69.2989 10.8332C65.9556 10.8332 63.0619 12.7338 61.6269 15.5124C60.624 15.0376 59.5083 14.7633 58.3233 14.7633C56.9744 14.7633 55.7093 15.1108 54.6058 15.719C53.0633 13.2765 50.3473 11.6502 47.2456 11.6502C45.3244 11.6502 43.5548 12.2797 42.116 13.3329C40.9911 11.8049 39.1835 10.8073 37.1411 10.8073C34.4761 10.8073 32.2104 12.5014 31.3462 14.8685C30.9445 14.8067 30.5376 14.7633 30.12 14.7633C25.7273 14.7633 22.1653 18.3246 22.1653 22.7187C22.1653 23.3589 22.2491 23.9777 22.3917 24.5752C18.6102 25.652 15.8354 29.1248 15.8354 33.2538C15.8354 38.2409 19.8798 42.2838 24.8662 42.2838C25.5505 42.2838 26.2166 42.2053 26.8575 42.0612L30.12 29.9799C47.0726 28.3383 58.0002 25.463 58.0002 25.463C68.1039 20.0484 79.7509 18.3344 88.4646 17.9176C96.1327 17.5518 103.745 19.396 110.458 23.1249L122.794 29.9799C157.548 32.5329 176.79 40.5821 176.79 40.5821L176.079 42.1839H182.404C182.404 42.1702 182.405 42.1588 182.405 42.1451C182.402 38.9656 179.827 36.3898 176.649 36.3898Z" fill="#29A9E0"/>
<path d="M29.5614 2.4661C28.7216 1.86481 27.6966 1.50586 26.5847 1.50586C23.7597 1.50586 21.4666 3.79823 21.4666 6.62557C21.4666 7.80223 21.8666 8.88132 22.5342 9.74629C22.8917 5.97091 25.8287 2.95536 29.5614 2.4661Z" fill="#63CEF5"/>
<path d="M49.3124 14.0491C48.4726 13.4478 47.4476 13.0889 46.3357 13.0889C43.5106 13.0889 41.2175 15.3812 41.2175 18.2093C41.2175 19.3852 41.6176 20.4651 42.2852 21.3293C42.6426 17.5547 45.5797 14.5399 49.3124 14.0491Z" fill="#63CEF5"/>
<path d="M59.8749 5.80351C59.2652 5.36607 58.5199 5.10547 57.7121 5.10547C55.6605 5.10547 53.9946 6.77063 53.9946 8.82445C53.9946 9.67875 54.2858 10.4629 54.7704 11.0909C55.0303 8.34891 57.1634 6.1594 59.8749 5.80351Z" fill="#63CEF5"/>
<path d="M34.938 16.3846C36.2198 14.6631 38.1609 13.4628 40.393 13.1702C39.5532 12.5681 38.5282 12.21 37.4163 12.21C35.3373 12.21 33.551 13.4537 32.7493 15.2354C33.5822 15.4983 34.3108 15.8931 34.938 16.3846Z" fill="#63CEF5"/>
<path d="M17.6791 15.2294C17.0123 14.7509 16.1961 14.4658 15.3113 14.4658C13.0647 14.4658 11.2402 16.2895 11.2402 18.5384C11.2402 19.475 11.5588 20.3331 12.0892 21.0213C12.3735 18.0171 14.7108 15.6196 17.6791 15.2294Z" fill="#63CEF5"/>
<path d="M11.836 27.2714C11.3467 26.92 10.7477 26.7112 10.0984 26.7112C8.45004 26.7112 7.11182 28.0487 7.11182 29.6993C7.11182 30.3852 7.34579 31.0162 7.73445 31.5207C7.94327 29.316 9.65793 27.5571 11.836 27.2714Z" fill="#63CEF5"/>
<path d="M4.62433 19.2962C4.23947 19.0211 3.77002 18.8564 3.26018 18.8564C1.96616 18.8564 0.916016 19.9066 0.916016 21.2014C0.916016 21.7402 1.09892 22.2348 1.40527 22.6311C1.56912 20.9019 2.9142 19.521 4.62433 19.2962Z" fill="#63CEF5"/>
<path d="M32.9061 17.4312C31.9436 16.7416 30.7685 16.3308 29.4936 16.3308C26.2547 16.3308 23.6262 18.9585 23.6262 22.2004C23.6262 23.5493 24.085 24.7869 24.8509 25.7769C25.2609 21.4498 28.6278 17.9921 32.9061 17.4312Z" fill="#63CEF5"/>
<path d="M28.81 27.9786C27.7012 27.1837 26.347 26.7104 24.8777 26.7104C21.1465 26.7104 18.1172 29.7382 18.1172 33.4732C18.1172 35.0271 18.6453 36.4537 19.5294 37.5953C19.9996 32.609 23.8793 28.6256 28.81 27.9786Z" fill="#63CEF5"/>
</svg>