<svg width="22" height="22" viewBox="0 0 22 22" fill="none" xmlns="http://www.w3.org/2000/svg">
<path d="M21.9242 16.5927C21.6685 16.3202 20.7654 15.5147 19.1053 14.449C17.4329 13.3739 16.1996 12.7036 15.8458 12.5473C15.8147 12.5335 15.7803 12.5284 15.7465 12.5326C15.7126 12.5369 15.6806 12.5502 15.6538 12.5713C15.0839 13.0157 14.1245 13.8321 14.073 13.8762C13.7408 14.1609 13.7408 14.1609 13.4689 14.0722C12.9906 13.9154 11.505 13.1265 10.2104 11.829C8.91584 10.5315 8.08627 9.00908 7.92948 8.53134C7.83981 8.2589 7.83981 8.2589 8.12547 7.92669C8.16957 7.87524 8.9864 6.91583 9.43082 6.34646C9.4519 6.31965 9.46527 6.2876 9.4695 6.25376C9.47373 6.21992 9.46866 6.18556 9.45483 6.15439C9.29852 5.80012 8.62821 4.5673 7.55316 2.89496C6.48595 1.23536 5.68138 0.332303 5.40894 0.0765269C5.38394 0.0529353 5.35304 0.0365236 5.31949 0.0290212C5.28595 0.0215188 5.251 0.0232035 5.21833 0.0338977C4.26601 0.361156 3.34717 0.778733 2.47435 1.28093C1.63177 1.77074 0.834065 2.33396 0.0905266 2.96405C0.0645714 2.98611 0.0451122 3.01483 0.0342357 3.04711C0.0233592 3.0794 0.0214757 3.11403 0.0287872 3.14731C0.131196 3.62456 0.620702 5.61687 2.13969 8.3765C3.68954 11.193 4.76361 12.636 7.03964 14.9042C9.31567 17.1723 10.8043 18.3111 13.6237 19.8609C16.3834 21.3799 18.3767 21.8699 18.8529 21.9713C18.8863 21.9786 18.921 21.9767 18.9533 21.9658C18.9857 21.9549 19.0145 21.9355 19.0367 21.9096C19.6667 21.1661 20.2297 20.3684 20.7193 19.5258C21.2214 18.6529 21.639 17.7341 21.9664 16.7818C21.9769 16.7494 21.9785 16.7148 21.9711 16.6815C21.9636 16.6483 21.9475 16.6176 21.9242 16.5927Z" fill="currentColor"/>
</svg>
