<svg width="135" height="134" viewBox="0 0 135 134" fill="none" xmlns="http://www.w3.org/2000/svg">
<path d="M68 134C105.003 134 135 104.003 135 67C135 29.9969 105.003 0 68 0C30.9969 0 1 29.9969 1 67C1 104.003 30.9969 134 68 134Z" fill="#E8F5FF"/>
<path fill-rule="evenodd" clip-rule="evenodd" d="M28.4639 103.727C28.6366 103.381 28.766 103.003 28.9927 102.699C29.3236 102.254 29.7875 102.001 30.3741 102.024C31.2572 102.058 32.1493 102.012 33.0219 102.123C34.0137 102.249 34.7113 103.18 34.711 104.183C34.7101 109.032 34.7116 113.881 34.7116 118.73C34.7116 119.841 33.995 120.741 32.8992 120.86C32.0804 120.949 31.2458 120.931 30.42 120.902C29.5778 120.874 28.957 120.459 28.6173 119.664C28.5796 119.575 28.5153 119.498 28.4636 119.416C28.4639 114.186 28.4639 108.957 28.4639 103.727Z" fill="#29ABE2"/>
<path fill-rule="evenodd" clip-rule="evenodd" d="M90.1629 82.0153C89.5354 77.0679 88.8866 71.9523 88.3178 66.9015C88.3172 66.8953 88.3166 66.8895 88.316 66.8836C88.3014 66.8761 88.286 66.8676 88.269 66.8585C83.4008 64.3083 77.8735 62.6298 71.3714 61.728C67.3594 61.1712 63.3325 60.8893 59.4026 60.8893C53.8753 60.8893 48.3489 61.4475 42.9771 62.5483C39.9764 63.1635 37.1851 63.9396 34.5464 64.8887C33.8862 70.5854 33.1641 76.2751 32.4554 81.9663C32.1644 84.3018 31.8568 86.635 31.5469 89.0485C32.6324 89.0949 33.6861 89.1826 34.7401 89.1767C37.4188 89.1627 39.1938 90.5506 40.4838 92.755C40.8826 93.4362 41.0263 94.1434 41.028 94.9333C41.0412 103.346 41.0803 111.817 41.1119 120.229C41.1154 121.054 41.1154 121.113 41.9552 121.113C54.927 121.113 67.8978 121.113 80.869 121.113C80.899 113.81 80.9288 106.744 80.9636 99.588C80.9668 98.9474 81.0232 98.071 81.4351 97.1973C83.1566 93.544 85.5298 91.7352 87.8273 90.9195C88.6982 90.0613 89.7626 89.4776 91.0754 89.2632C90.9884 88.5712 90.9013 87.875 90.8152 87.1859C90.5999 85.4633 90.3814 83.7374 90.1629 82.0153ZM55.5051 66.7785C58.1169 66.7785 60.8717 66.7785 63.2086 66.7785C63.2086 66.7785 63.2086 66.8539 63.2086 66.8889C66.1299 66.8889 68.7105 66.8708 71.4281 66.8988C72.3308 66.9079 72.9115 67.4244 73.0117 68.1967C73.1163 69.0059 72.6051 69.7552 71.783 69.821C70.6411 69.9118 69.5016 69.9492 68.3567 69.9536C64.0666 69.9702 59.7809 69.9641 55.491 69.9647C54.6553 69.965 53.8572 69.1783 53.8642 68.3732C53.8706 67.5734 54.6868 66.7785 55.5051 66.7785ZM73.0202 101.904C73.166 106.817 68.4023 111.489 63.433 111.453C58.3635 111.417 53.8186 106.865 53.842 101.82C53.8651 96.8257 58.3974 92.2277 63.6521 92.2826C68.3512 92.3311 73.1841 96.8044 73.0202 101.904ZM75.9902 78.8403C75.6318 79.3798 75.188 79.5849 74.5138 79.5828C67.1272 79.5565 59.7409 79.5662 52.3545 79.5659C51.5602 79.5659 50.9257 79.0573 50.7335 78.2715C50.5828 77.6534 51.0107 76.7466 51.6391 76.4516C51.8357 76.3593 52.0934 76.3768 52.3227 76.3768C56.0797 76.3727 59.8364 76.3739 63.5934 76.3739C67.3074 76.3736 71.0221 76.3978 74.7361 76.3557C75.6195 76.3455 75.8716 76.9768 76.2408 77.5082C76.5832 78.0016 76.2698 78.4208 75.9902 78.8403Z" fill="#29ABE2"/>
<path fill-rule="evenodd" clip-rule="evenodd" d="M86.7156 44.0273C86.4904 42.1072 86.2774 40.2934 85.4735 38.7419C84.4937 36.8492 83.0649 35.1213 81.1054 33.4586C77.4486 30.3562 72.9005 28.3823 67.2006 27.4239C63.852 26.861 60.5341 26.5756 57.3388 26.5756C55.532 26.5756 53.7288 26.6687 51.9553 26.8493C49.4766 27.5568 47.1081 28.5734 44.9034 30.0445C41.1181 32.5705 38.5664 35.9089 37.8668 40.5516C37.0669 45.8621 36.126 51.151 35.2566 56.4513C35.1652 57.0092 35.0828 57.5695 35.0022 58.1345C37.3217 57.4501 39.9721 56.8138 42.9593 56.302C47.7297 54.6907 54.6048 53.1924 63.696 53.1924C75.6272 53.1924 83.8607 56.0166 88.2872 58.0796C87.79 53.4947 87.2773 48.8026 86.734 44.1804L86.7156 44.0273ZM79.2816 44.2849C68.734 44.2849 58.1705 44.2849 47.4233 44.2849C48.226 42.8243 49.011 41.4592 50.0667 40.3156C53.5357 36.5574 57.9017 34.949 62.9444 34.9688C65.0056 34.9767 67.0677 35.0416 69.0679 35.62C73.5744 36.9234 76.9984 39.58 79.1724 43.7775C79.2302 43.89 79.2738 43.977 79.3144 44.0968C79.3263 44.1319 79.3047 44.2849 79.2816 44.2849Z" fill="#29ABE2"/>
<path fill-rule="evenodd" clip-rule="evenodd" d="M95.0635 111.882C95.0629 114.212 95.0629 116.542 95.0629 118.872C95.0629 119.808 94.3493 120.746 93.4218 120.835C92.5042 120.923 91.5656 120.927 90.6487 120.839C89.6797 120.747 88.9915 119.843 88.9915 118.857C88.9909 114.21 89.002 109.564 88.9827 104.917C88.9786 103.982 89.7805 102.898 90.7626 102.839C91.6574 102.786 92.5688 102.793 93.4574 102.901C94.3756 103.013 95.0627 103.928 95.0635 104.852C95.0659 107.195 95.0638 109.538 95.0635 111.882Z" fill="#29ABE2"/>
<path d="M79.626 10.5538C70.9459 9.08795 64.6895 8.75201 58.7065 9.42973C52.5033 10.1326 46.3684 11.9887 38.8118 15.4469C32.8878 18.1581 26.9743 22.8259 21.7068 28.945C15.5716 36.0722 10.7116 44.668 7.25486 54.4929C3.78648 64.3492 1.84064 74.9459 1.61337 85.1381C1.40012 94.6964 2.77398 102.965 5.45538 108.42C7.98984 113.576 12.8668 117.154 19.5036 118.768C22.0392 119.384 24.356 119.602 26.1088 119.668V115.709C24.6482 115.643 22.525 115.444 20.3353 114.902C14.8512 113.545 10.9888 110.778 8.97254 106.676C4.48144 97.5393 3.65707 76.6046 10.9753 55.8043C14.2681 46.4458 18.8854 38.276 24.6984 31.5236C29.5269 25.9145 35.1225 21.4813 40.4549 19.0409C47.6149 15.7638 53.3808 14.0108 59.1505 13.357C64.7456 12.7231 70.6719 13.0503 78.9673 14.451C88.5559 16.0703 98.7198 21.7164 102.696 24.1025L104.798 20.7466C100.64 18.232 90.0221 12.3095 79.626 10.5538Z" fill="#29ABE2"/>
<path fill-rule="evenodd" clip-rule="evenodd" d="M120.917 51.6273C120.916 52.4747 120.916 53.3222 120.915 54.1696L127.28 57.4662C127.279 56.6807 127.279 55.8946 127.278 55.1091C127.277 54.4016 127.412 53.8261 127.877 53.2485C128.945 51.922 129.448 50.3291 129.928 48.7136C129.986 48.5161 130.105 48.3292 130.105 48.137C130.105 43.7598 130.105 39.382 130.105 35.0046C129.521 33.4178 129.055 31.8096 128.406 30.2529C128.085 29.4837 127.575 28.8013 127.113 28.095C126.879 27.7389 126.603 27.7143 126.207 27.9463C125.165 28.5571 124.089 29.0978 123.043 29.7011C122.688 29.9059 122.457 29.8699 122.149 29.6137C119.709 27.5762 117.313 25.5377 114.785 23.6144C113.143 22.3659 111.305 21.2073 109.553 20.3309C109.213 20.3309 108.873 20.3309 108.533 20.3309C107.395 20.9152 106.579 21.8097 105.917 22.8937C104.88 24.5939 104.219 26.4223 103.641 28.3141C102.675 31.4731 101.9 34.6438 102.112 37.9939C102.202 39.4121 102.695 40.6352 103.812 41.4824C105.126 42.4791 106.483 43.4531 107.934 44.2246C111.982 46.3763 116.084 48.425 120.179 50.4886C120.694 50.748 120.918 51.0129 120.917 51.6273ZM108.655 36.9405C108.185 36.6881 108.037 36.3405 108.192 35.9031C108.711 34.4273 109.211 32.9393 109.84 31.509C110.223 30.64 110.858 30.4363 111.801 30.6151C113.313 30.9011 114.623 31.658 115.914 32.4377C117.259 33.2495 118.537 34.177 119.906 34.9432C121.907 36.0629 123.045 37.8221 123.776 39.8935C124.17 41.0071 124.44 42.1648 124.765 43.3026C124.728 43.3166 124.693 43.3307 124.656 43.3444C124.62 43.5524 124.613 43.7694 124.544 43.9663C124.235 44.8672 123.872 45.0659 123.031 44.6332C120.048 43.0978 117.079 41.5373 114.121 39.9561C112.286 38.9757 110.488 37.9252 108.655 36.9405Z" fill="#29ABE2"/>
<path fill-rule="evenodd" clip-rule="evenodd" d="M127.492 92.9944C127.439 92.8299 127.398 92.6587 127.365 92.4855H120.847C120.832 92.5623 120.815 92.6377 120.791 92.7107C119.851 95.5741 118.888 98.4296 117.958 101.296C117.84 101.66 117.795 102.088 117.855 102.463C118.258 104.999 118.704 107.529 119.125 110.062C119.685 113.434 120.244 116.805 120.78 120.18C120.864 120.705 121.049 120.953 121.616 120.944C123.293 120.918 124.97 120.932 126.648 120.934C127.048 120.934 127.296 120.838 127.373 120.355C128.048 116.163 128.695 111.976 129.399 107.789C129.634 106.39 129.813 104.996 130.105 103.599C130.105 102.707 130.105 101.814 130.105 100.922C129.813 100.033 129.481 99.1511 129.176 98.2543C128.583 96.506 128.054 94.7529 127.492 92.9944Z" fill="#29ABE2"/>
<path fill-rule="evenodd" clip-rule="evenodd" d="M130.5 103.599C130.247 104.995 129.978 106.389 129.743 107.789C129.039 111.975 128.341 116.162 127.666 120.354C127.588 120.837 127.341 120.934 126.94 120.933C125.263 120.932 123.585 120.917 121.908 120.943C121.342 120.952 121.156 120.704 121.073 120.18C120.537 116.804 119.977 113.433 119.417 110.062C118.996 107.528 118.55 104.999 118.147 102.462C118.088 102.087 118.133 101.66 118.251 101.296C119.181 98.4294 120.143 95.5736 121.083 92.7102C121.167 92.4555 121.188 92.1698 121.188 91.899C121.194 78.4751 121.188 65.0511 121.209 51.6272C121.21 51.0129 120.986 50.7461 120.471 50.4867C116.377 48.4232 112.274 46.3728 108.227 44.221C106.775 43.4492 105.419 42.472 104.104 41.4753C102.988 40.6279 102.494 39.398 102.404 37.9795C102.193 34.6294 102.967 31.4441 103.933 28.2854C104.511 26.3936 105.173 24.5363 106.21 22.8358C106.871 21.7517 107.688 20.8225 108.826 20.2146C109.166 20.2146 109.506 20.2146 109.845 20.2146C111.597 21.3194 113.438 22.3077 115.079 23.5565C117.608 25.4795 120.004 27.5764 122.445 29.6137C122.753 29.8701 122.987 29.9058 123.342 29.701C124.388 29.0981 125.471 28.5571 126.513 27.9465C126.908 27.7146 127.198 27.7391 127.431 28.0952C127.893 28.8013 128.429 29.4837 128.75 30.2531C129.399 31.8098 129.925 33.4177 130.501 35.0045C130.501 39.382 130.501 43.7594 130.501 48.1369C130.423 48.3288 130.33 48.5161 130.272 48.7136C129.792 50.3293 129.237 51.9219 128.169 53.2485C127.704 53.8263 127.57 54.4015 127.571 55.109C127.585 67.344 127.579 79.579 127.589 91.8137C127.589 92.2081 127.664 92.6173 127.785 92.9942C128.347 94.7527 128.927 96.5058 129.521 98.2538C129.825 99.1504 130.173 100.033 130.501 100.922C130.5 101.814 130.5 102.706 130.5 103.599ZM124.948 43.3449C124.985 43.3309 125.021 43.3172 125.057 43.3028C124.732 42.165 124.462 41.0076 124.069 39.8938C123.337 37.8226 122.199 36.0634 120.198 34.9434C118.829 34.1772 117.55 33.25 116.206 32.4376C114.916 31.6582 113.605 30.901 112.094 30.6151C111.15 30.4363 110.515 30.6399 110.132 31.509C109.504 32.9392 109.003 34.427 108.484 35.9031C108.33 36.3407 108.477 36.688 108.947 36.9404C110.78 37.9249 112.578 38.9756 114.413 39.9563C117.371 41.5375 120.341 43.0981 123.323 44.6332C124.164 45.0658 124.528 44.8672 124.837 43.9665C124.905 43.77 124.913 43.5526 124.948 43.3449Z" stroke="#021A63" stroke-width="3" stroke-miterlimit="10" stroke-linecap="round" stroke-linejoin="round"/>
<path fill-rule="evenodd" clip-rule="evenodd" d="M28.7561 94.9289C29.0173 94.4075 29.2124 93.8366 29.5551 93.3766C30.0558 92.7032 30.7569 92.3217 31.6437 92.3559C32.9785 92.4082 34.3266 92.3383 35.6458 92.5057C37.145 92.6956 38.1993 94.1036 38.199 95.6192C38.1978 102.949 38.1999 110.278 38.1999 117.608C38.1999 119.287 37.1167 120.646 35.4606 120.826C34.2235 120.961 32.9615 120.934 31.7136 120.891C30.4405 120.848 29.5019 120.221 28.9886 119.019C28.9317 118.886 28.8347 118.769 28.7561 118.644C28.7561 110.739 28.7561 102.834 28.7561 94.9289Z" stroke="#021A63" stroke-width="3" stroke-miterlimit="10" stroke-linecap="round" stroke-linejoin="round"/>
<path fill-rule="evenodd" clip-rule="evenodd" d="M31.8389 89.0482C32.1491 86.6347 32.4567 84.3015 32.7474 81.9659C33.466 76.1924 34.1992 70.4209 34.8676 64.6413C34.9701 63.7553 35.4244 63.3764 36.1284 63.0323C40.2164 61.0321 44.5132 59.6673 48.962 58.7553C57.643 56.976 66.3786 56.7805 75.1382 57.9955C80.6982 58.767 86.0683 60.2264 91.0829 62.8535C92.0814 63.377 92.5415 63.9872 92.6726 65.1516C93.3474 71.1437 94.135 77.1228 94.8837 83.1067C95.1285 85.0621 95.3745 87.0176 95.6295 89.0461C94.6681 89.0894 93.7395 89.1916 92.8155 89.1621C89.5644 89.059 87.6017 90.8246 86.3061 93.5746C86.1863 93.8285 86.1682 94.1478 86.1668 94.4373C86.1247 102.999 86.0908 111.56 86.0549 120.121C86.0514 120.995 86.049 120.997 85.2027 120.997C70.884 120.997 56.5656 120.997 42.2469 120.997C41.4071 120.997 41.4068 120.995 41.4036 120.17C41.3717 111.758 41.3329 103.345 41.3194 94.9324C41.318 94.1425 41.1739 93.4353 40.7752 92.7541C39.4849 90.5497 37.71 89.1618 35.0315 89.1758C33.9784 89.1823 32.9244 89.0949 31.8389 89.0482ZM73.3125 101.904C73.4766 96.8043 68.6435 92.3311 63.9444 92.2823C58.6897 92.2273 54.1574 96.8257 54.1343 101.82C54.1106 106.865 58.6561 111.416 63.7253 111.453C68.6946 111.49 73.4582 106.817 73.3125 101.904ZM63.8854 76.3741C60.1284 76.3741 56.3717 76.3729 52.6147 76.377C52.3851 76.377 52.1277 76.3592 51.9311 76.4518C51.3027 76.7472 50.8748 77.6536 51.0258 78.2717C51.2177 79.0573 51.8522 79.5661 52.6468 79.5661C60.0331 79.5664 67.4195 79.5568 74.8061 79.5831C75.4803 79.5851 75.924 79.3801 76.2825 78.8405C76.562 78.4207 76.8755 78.0018 76.5328 77.5087C76.1633 76.9773 75.9115 76.3461 75.0281 76.3563C71.314 76.3981 67.5994 76.3738 63.8854 76.3741ZM63.6341 66.8889C63.6338 66.8538 63.6338 66.8185 63.6338 66.7834C61.0217 66.7834 58.4095 66.7831 55.7971 66.7834C54.9791 66.7837 54.1647 67.5757 54.1579 68.3755C54.1512 69.1809 54.9511 69.9649 55.7868 69.9646C60.0769 69.9641 64.3668 69.9702 68.6569 69.9535C69.802 69.9492 70.9501 69.9115 72.0917 69.8209C72.9137 69.7552 73.4419 69.0059 73.3373 68.1967C73.2371 67.424 72.6894 66.9079 71.787 66.8988C69.0697 66.8708 66.3518 66.8889 63.6341 66.8889Z" stroke="#021A63" stroke-width="3" stroke-miterlimit="10" stroke-linecap="round" stroke-linejoin="round"/>
<path d="M35.0015 60.2036C35.1875 58.9189 35.3468 57.6811 35.5486 56.4507C36.418 51.1504 37.3589 45.8615 38.1587 40.551C38.8584 35.9083 41.4098 32.5699 45.1951 30.0439C48.8209 27.6249 52.8882 26.4286 57.1646 25.8289C62.2367 25.1176 67.3009 25.2847 72.3278 26.1298C76.9956 26.9147 81.3459 28.5471 85.0194 31.6641C86.7011 33.0911 88.1401 34.7188 89.164 36.6962C90.017 38.3426 90.2127 40.1494 90.4225 41.9316C91.1341 47.9838 91.7701 54.0448 92.4338 60.1028C92.4381 60.1417 92.4191 60.1829 92.4156 60.2016M47.7158 44.3562C58.463 44.3562 69.0262 44.3562 79.5742 44.3562C79.597 44.2163 79.6186 44.1698 79.6069 44.1348C79.566 44.015 79.5228 43.8947 79.4649 43.7825C77.2913 39.5847 73.867 36.9325 69.3604 35.6293C67.3602 35.0509 65.2981 34.9951 63.2369 34.9867C58.1946 34.9665 53.8282 36.593 50.3593 40.3512C49.3035 41.4949 48.5186 42.8202 47.7158 44.3562Z" stroke="#021A63" stroke-width="3" stroke-miterlimit="10" stroke-linecap="round" stroke-linejoin="round"/>
<path fill-rule="evenodd" clip-rule="evenodd" d="M98.8653 106.676C98.8645 110.35 98.8645 114.025 98.8645 117.7C98.8645 119.176 97.7386 120.655 96.2759 120.795C94.8294 120.934 93.3489 120.94 91.9026 120.802C90.3742 120.657 89.289 119.23 89.289 117.675C89.2881 110.347 89.3056 103.018 89.2749 95.6904C89.2688 94.2163 90.5334 92.5059 92.0819 92.4136C93.4932 92.3298 94.9304 92.3409 96.332 92.5112C97.7798 92.6876 98.8636 94.1313 98.8647 95.5875C98.8685 99.2835 98.8659 102.98 98.8653 106.676Z" stroke="#021A63" stroke-width="3" stroke-miterlimit="10" stroke-linecap="round" stroke-linejoin="round"/>
<path d="M105.09 20.7468C100.932 18.2322 90.3137 12.3094 79.9176 10.5537C71.2375 9.08786 64.9808 8.75192 58.9978 9.42994C52.7946 10.1328 46.6585 11.9886 39.1025 15.4471C33.1785 18.1583 27.263 22.8261 21.9955 28.9452C15.8603 36.0724 10.9967 44.6682 7.53975 54.4931C4.07166 64.3494 2.11823 74.9462 1.89067 85.1383C1.67742 94.6966 3.03637 102.965 5.71806 108.42C8.25252 113.577 13.1003 117.154 19.7368 118.768C22.2718 119.384 24.6044 119.602 26.2824 119.668" stroke="#021A63" stroke-width="3" stroke-miterlimit="10" stroke-linecap="round" stroke-linejoin="round"/>
<path d="M26.2824 115.71C24.8019 115.644 22.7585 115.444 20.5685 114.902C15.0845 113.546 11.2813 110.778 9.26508 106.676C4.77398 97.5395 3.94961 76.6048 11.2682 55.8044C14.561 46.4457 19.1783 38.2765 24.9909 31.5235C29.8195 25.9144 35.4151 21.4811 40.7475 19.0407C47.9071 15.7637 53.6731 14.0107 59.4431 13.3569C65.0384 12.723 70.9647 13.0502 79.2598 14.4509C88.8485 16.0701 99.0123 21.7166 102.989 24.1024" stroke="#021A63" stroke-width="3" stroke-miterlimit="10" stroke-linecap="round" stroke-linejoin="round"/>
<path d="M16.469 24.1285V27.9261" stroke="#021A63" stroke-width="3" stroke-miterlimit="10" stroke-linecap="round" stroke-linejoin="round"/>
<path d="M16.469 12.7357V16.5333" stroke="#021A63" stroke-width="3" stroke-miterlimit="10" stroke-linecap="round" stroke-linejoin="round"/>
<path d="M12.9636 20.3309H9.16602" stroke="#021A63" stroke-width="3" stroke-miterlimit="10" stroke-linecap="round" stroke-linejoin="round"/>
<path d="M24.3564 20.3309H20.5588" stroke="#021A63" stroke-width="3" stroke-miterlimit="10" stroke-linecap="round" stroke-linejoin="round"/>
<path d="M107.904 74.3737V78.1713" stroke="#021A63" stroke-width="3" stroke-miterlimit="10" stroke-linecap="round" stroke-linejoin="round"/>
<path d="M107.904 62.9808V66.7784" stroke="#021A63" stroke-width="3" stroke-miterlimit="10" stroke-linecap="round" stroke-linejoin="round"/>
<path d="M104.398 70.576H100.601" stroke="#021A63" stroke-width="3" stroke-miterlimit="10" stroke-linecap="round" stroke-linejoin="round"/>
<path d="M115.791 70.576H111.993" stroke="#021A63" stroke-width="3" stroke-miterlimit="10" stroke-linecap="round" stroke-linejoin="round"/>
<path d="M20.2666 85.7665V89.5641" stroke="#021A63" stroke-width="3" stroke-miterlimit="10" stroke-linecap="round" stroke-linejoin="round"/>
<path d="M20.2666 74.3737V78.1713" stroke="#021A63" stroke-width="3" stroke-miterlimit="10" stroke-linecap="round" stroke-linejoin="round"/>
<path d="M16.7612 81.9689H12.9636" stroke="#021A63" stroke-width="3" stroke-miterlimit="10" stroke-linecap="round" stroke-linejoin="round"/>
<path d="M28.154 81.9689H24.3564" stroke="#021A63" stroke-width="3" stroke-miterlimit="10" stroke-linecap="round" stroke-linejoin="round"/>
</svg>
