<svg width="18" height="18" viewBox="0 0 18 18" fill="none" xmlns="http://www.w3.org/2000/svg">
<path fill-rule="evenodd" clip-rule="evenodd" d="M9.43371 0.715629C9.51705 0.732991 9.60056 0.750389 9.68505 0.757182C14.6437 1.14972 18.0897 5.85001 16.9534 10.6735C15.7636 15.7254 10.4047 18.3307 5.60098 16.1806C5.24168 16.0195 4.93097 16.0001 4.56335 16.1243C3.64014 16.4359 2.71073 16.7287 1.78121 17.0215C1.60768 17.0762 1.43414 17.1309 1.26063 17.1856C1.15296 17.2195 1.04103 17.2405 0.908376 17.2655C0.842214 17.2779 0.770898 17.2913 0.692383 17.3078C0.714566 17.2249 0.733198 17.1515 0.750188 17.0846C0.782666 16.9567 0.809143 16.8524 0.842961 16.7505C0.926614 16.4984 1.00968 16.2461 1.09274 15.9938C1.35822 15.1873 1.62373 14.3808 1.90863 13.5811C2.04135 13.2088 2.0104 12.9053 1.83096 12.5527C-0.514512 7.9396 1.90593 2.41602 6.88619 1.02053C7.27656 0.911083 7.68015 0.84816 8.08374 0.785238C8.27215 0.755864 8.46056 0.72649 8.64762 0.692383H9.31681C9.35579 0.699398 9.39473 0.707509 9.43371 0.715629ZM12.2299 10.3477C12.4143 10.4457 12.5973 10.5465 12.7799 10.6476C13.2684 10.9191 13.3203 11.0397 13.1872 11.588C13.0058 12.3361 12.196 12.8805 11.0093 12.8876C10.9457 12.8675 10.8656 12.8435 10.7735 12.8159C10.5231 12.7408 10.1845 12.6392 9.85245 12.5197C7.67168 11.7349 6.2818 10.1172 5.29132 8.10773C4.84125 7.19451 4.86596 6.2734 5.49714 5.42684C5.61947 5.26297 5.77565 5.10866 5.94762 5.00045C6.45003 4.68496 7.01516 4.87293 7.23594 5.41334C7.29264 5.55197 7.34412 5.693 7.39558 5.83398C7.47797 6.05968 7.56032 6.28528 7.66399 6.50082C7.8775 6.94445 7.76639 7.29295 7.46004 7.64125C7.01208 8.1507 7.02381 8.16868 7.39816 8.74274L7.40189 8.74846C7.97013 9.61973 8.71658 10.2868 9.64226 10.7633C9.97478 10.9346 10.2238 10.9118 10.4919 10.6279C11.2493 9.82639 11.2605 9.83237 12.2216 10.3433L12.2299 10.3477Z" fill="#63CCF5"/>
</svg>