<svg width="18" height="18" viewBox="0 0 18 18" fill="none" xmlns="http://www.w3.org/2000/svg">
<path fill-rule="evenodd" clip-rule="evenodd" d="M0.692383 8.99997C0.692383 4.41175 4.41174 0.692383 8.99997 0.692383C13.5882 0.692383 17.3076 4.41175 17.3076 8.99997C17.3076 13.5884 13.5882 17.3078 8.99997 17.3078C4.41174 17.3078 0.692383 13.5884 0.692383 8.99997ZM8.25845 12.6047C8.36558 12.5066 8.47392 12.4074 8.58433 12.3069C8.7715 12.4509 8.95621 12.5941 9.13959 12.7363C9.55597 13.0592 9.96551 13.3768 10.3814 13.6855C10.9671 14.1195 11.735 13.8293 11.8769 13.116C12.2099 11.4421 12.5365 9.76708 12.8631 8.09194C12.9787 7.49901 13.0943 6.90607 13.2102 6.31317C13.2256 6.23382 13.243 6.15452 13.2603 6.07519C13.305 5.87116 13.3497 5.66692 13.3614 5.46106C13.3896 4.96519 12.9549 4.45463 12.1742 4.7848C10.4729 5.50414 8.77046 6.22095 7.06806 6.93773C5.93773 7.41364 4.80743 7.88955 3.67752 8.36618C3.35687 8.50147 3.10697 8.71744 3.11752 9.09229C3.12786 9.45949 3.37922 9.67278 3.69325 9.81759C3.74055 9.8395 3.79039 9.85595 3.84019 9.87239C3.85246 9.87644 3.86473 9.88049 3.87695 9.88462C4.01991 9.93247 4.16261 9.98107 4.30531 10.0297C4.66481 10.1521 5.02426 10.2745 5.38753 10.3848C5.58675 10.4455 5.6906 10.5419 5.74977 10.7479C5.96119 11.4815 6.18213 12.2128 6.42562 12.936C6.62815 13.5378 7.0992 13.6489 7.5719 13.2277C7.80079 13.0237 8.02677 12.8168 8.25845 12.6047ZM7.71651 7.5178C9.33198 6.83748 10.9431 6.159 12.5712 5.47348C12.53 5.68781 12.4904 5.89562 12.4516 6.0991C12.3765 6.49326 12.3044 6.8712 12.2305 7.24886C11.9897 8.47568 11.748 9.70232 11.5063 10.929C11.3809 11.5656 11.2554 12.2023 11.1301 12.839C11.072 13.1362 11.0025 13.1662 10.7505 12.9751C10.2848 12.6216 9.82113 12.2655 9.35737 11.9094C9.14783 11.7485 8.93828 11.5875 8.72853 11.4269C8.68457 11.3931 8.63967 11.3604 8.58982 11.324C8.57328 11.3119 8.55619 11.2994 8.53841 11.2864C8.24681 11.551 7.95737 11.8138 7.65289 12.0902C7.48625 12.2415 7.31511 12.3969 7.13664 12.5589C7.15988 12.4033 7.18398 12.255 7.20728 12.1116C7.25843 11.7967 7.30578 11.5053 7.33193 11.2119C7.36627 10.8242 7.54045 10.5516 7.82739 10.2922C8.61702 9.57753 9.39497 8.84991 10.1729 8.1223C10.4656 7.84857 10.7582 7.57484 11.0515 7.30181C11.0617 7.29219 11.0727 7.28303 11.0838 7.27388C11.1094 7.25253 11.1351 7.23118 11.151 7.20396C11.1919 7.13373 11.2283 7.06109 11.2649 6.98835C11.2808 6.95653 11.2968 6.9247 11.3132 6.89304C11.2757 6.90283 11.2365 6.90989 11.1974 6.91695C11.1142 6.93196 11.031 6.94697 10.9638 6.9882C9.54215 7.86099 8.12053 8.73379 6.71152 9.62644C6.4281 9.80601 6.1964 9.85855 5.8712 9.72801C5.45523 9.56119 5.02764 9.42392 4.5767 9.27915C4.38513 9.21765 4.18935 9.15479 3.98845 9.08774C5.24008 8.5607 6.47958 8.03871 7.71651 7.5178Z" fill="#63CEF5"/>
</svg>