<svg width="141" height="132" viewBox="0 0 141 132" fill="none" xmlns="http://www.w3.org/2000/svg">
<path d="M75.0922 131.816C111.492 131.816 141 102.308 141 65.9079C141 29.508 111.492 0 75.0922 0C38.6923 0 9.18433 29.508 9.18433 65.9079C9.18433 102.308 38.6923 131.816 75.0922 131.816Z" fill="#E8F5FF"/>
<path d="M76.0836 81.9841C78.1695 81.9841 79.8605 80.2931 79.8605 78.2071C79.8605 76.1212 78.1695 74.4302 76.0836 74.4302C73.9976 74.4302 72.3066 76.1212 72.3066 78.2071C72.3066 80.2931 73.9976 81.9841 76.0836 81.9841Z" fill="#29ABE2"/>
<path d="M75.5029 34.8859C50.8937 34.8859 30.8727 54.989 30.8727 79.6986C30.8727 104.409 50.8937 124.512 75.5029 124.512C100.112 124.512 120.134 104.409 120.134 79.6986C120.133 54.9887 100.112 34.8859 75.5029 34.8859ZM75.5029 117.433C54.7967 117.433 37.951 100.505 37.951 79.6986C37.951 58.8918 54.7967 41.9642 75.5029 41.9642C96.209 41.9642 113.055 58.8918 113.055 79.6986C113.055 100.505 96.209 117.433 75.5029 117.433Z" fill="#29ABE2"/>
<path d="M67.361 21.1881H80.3155C82.9802 21.1881 85.1599 19.0147 85.1599 16.4856C85.1599 13.9565 82.9802 11.7831 80.3155 11.7831H67.361C64.6966 11.7831 62.5166 13.9565 62.5166 16.4856C62.5166 19.0147 64.6966 21.1881 67.361 21.1881Z" fill="#29ABE2"/>
<path d="M80.8358 24.7841H69.4945V30.3164H80.8358V24.7841Z" fill="#29ABE2"/>
<path d="M40.4497 33.3591V37.2318" stroke="#021A63" stroke-width="3" stroke-miterlimit="10" stroke-linecap="round" stroke-linejoin="round"/>
<path d="M40.4497 21.7413V25.614" stroke="#021A63" stroke-width="3" stroke-miterlimit="10" stroke-linecap="round" stroke-linejoin="round"/>
<path d="M36.5771 29.4866H32.7045" stroke="#021A63" stroke-width="3" stroke-miterlimit="10" stroke-linecap="round" stroke-linejoin="round"/>
<path d="M48.195 29.4866H44.3224" stroke="#021A63" stroke-width="3" stroke-miterlimit="10" stroke-linecap="round" stroke-linejoin="round"/>
<path d="M117.073 25.6139V30.3164" stroke="#021A63" stroke-width="3" stroke-miterlimit="10" stroke-linecap="round" stroke-linejoin="round"/>
<path d="M117.073 12.0597V16.4856" stroke="#021A63" stroke-width="3" stroke-miterlimit="10" stroke-linecap="round" stroke-linejoin="round"/>
<path d="M112.647 21.188H107.944" stroke="#021A63" stroke-width="3" stroke-miterlimit="10" stroke-linecap="round" stroke-linejoin="round"/>
<path d="M126.478 21.188H121.775" stroke="#021A63" stroke-width="3" stroke-miterlimit="10" stroke-linecap="round" stroke-linejoin="round"/>
<path d="M100.952 117.55C94.0005 121.68 85.8818 124.052 77.2085 124.052C51.5006 124.052 30.6605 103.212 30.6605 77.5044C30.6605 51.7968 51.5006 30.9562 77.2085 30.9562C102.916 30.9562 123.756 51.7968 123.756 77.5044C123.756 85.5379 121.721 93.0965 118.139 99.6919" stroke="#021A63" stroke-width="3" stroke-miterlimit="10" stroke-linecap="round" stroke-linejoin="round"/>
<path d="M114.99 104.7C113.071 107.361 110.879 109.81 108.454 112.008" stroke="#021A63" stroke-width="3" stroke-miterlimit="10" stroke-linecap="round" stroke-linejoin="round"/>
<path d="M77.4257 113.372C97.2255 113.372 113.276 97.3208 113.276 77.5211C113.276 57.7213 97.2255 41.6704 77.4257 41.6704C57.626 41.6704 41.5751 57.7213 41.5751 77.5211C41.5751 97.3208 57.626 113.372 77.4257 113.372Z" stroke="#021A63" stroke-width="3" stroke-miterlimit="10" stroke-linecap="round" stroke-linejoin="round"/>
<path d="M92.2565 14.9641C92.2565 18.3516 89.3363 21.188 85.7679 21.188H68.4155C64.8468 21.188 61.9269 18.3516 61.9269 14.9641C61.9269 11.5767 64.8468 8.74023 68.4155 8.74023H85.7679C89.3363 8.74023 92.2565 11.5767 92.2565 14.9641Z" stroke="#021A63" stroke-width="3" stroke-miterlimit="10" stroke-linecap="round" stroke-linejoin="round"/>
<path d="M68.9413 22.2944V30.3163" stroke="#021A63" stroke-width="3" stroke-miterlimit="10" stroke-linecap="round" stroke-linejoin="round"/>
<path d="M85.2617 22.2944V30.3163" stroke="#021A63" stroke-width="3" stroke-miterlimit="10" stroke-linecap="round" stroke-linejoin="round"/>
<path d="M77.2885 82.7768C80.3239 82.7768 82.7846 80.3161 82.7846 77.2807C82.7846 74.2452 80.3239 71.7845 77.2885 71.7845C74.253 71.7845 71.7924 74.2452 71.7924 77.2807C71.7924 80.3161 74.253 82.7768 77.2885 82.7768Z" stroke="#021A63" stroke-width="3" stroke-miterlimit="10" stroke-linecap="round" stroke-linejoin="round"/>
<path d="M82.1155 72.792L94.517 60.2861" stroke="#021A63" stroke-width="3" stroke-miterlimit="10" stroke-linecap="round" stroke-linejoin="round"/>
<path d="M66.1013 66.6746L72.5764 72.8758" stroke="#021A63" stroke-width="3" stroke-miterlimit="10" stroke-linecap="round" stroke-linejoin="round"/>
<path d="M77.2397 49.9562V54.382" stroke="#021A63" stroke-width="3" stroke-miterlimit="10" stroke-linecap="round" stroke-linejoin="round"/>
<path d="M77.2397 99.4707V104.726" stroke="#021A63" stroke-width="3" stroke-miterlimit="10" stroke-linecap="round" stroke-linejoin="round"/>
<path d="M104.625 77.8945H100.199" stroke="#021A63" stroke-width="3" stroke-miterlimit="10" stroke-linecap="round" stroke-linejoin="round"/>
<path d="M54.2806 77.8945H49.8547" stroke="#021A63" stroke-width="3" stroke-miterlimit="10" stroke-linecap="round" stroke-linejoin="round"/>
<path d="M38.5135 49.9562H6.70251" stroke="#021A63" stroke-width="3" stroke-miterlimit="10" stroke-linecap="round" stroke-linejoin="round"/>
<path d="M30.7682 64.6169H2" stroke="#021A63" stroke-width="3" stroke-miterlimit="10" stroke-linecap="round" stroke-linejoin="round"/>
<path d="M28.2786 77.8945H13.8945" stroke="#021A63" stroke-width="3" stroke-miterlimit="10" stroke-linecap="round" stroke-linejoin="round"/>
<path d="M30.7682 92.2786H13.8945" stroke="#021A63" stroke-width="3" stroke-miterlimit="10" stroke-linecap="round" stroke-linejoin="round"/>
<path d="M8.36214 92.2786H4.21289" stroke="#021A63" stroke-width="3" stroke-miterlimit="10" stroke-linecap="round" stroke-linejoin="round"/>
</svg>
